<svg width="64" height="84" viewBox="0 0 64 84" fill="none" xmlns="http://www.w3.org/2000/svg">
<rect y="3" width="61" height="81" rx="4" fill="#DEE7F2"/>
<path d="M19.0625 57H16.1449V47.5455H19.1918C20.1089 47.5455 20.8937 47.7347 21.5462 48.1133C22.1986 48.4888 22.6987 49.0289 23.0465 49.7337C23.3943 50.4354 23.5682 51.2756 23.5682 52.2543C23.5682 53.2391 23.3928 54.087 23.0419 54.7979C22.6911 55.5058 22.1802 56.0505 21.5092 56.4322C20.8383 56.8107 20.0227 57 19.0625 57ZM17.2898 55.9844H18.9886C19.7704 55.9844 20.4182 55.8336 20.9322 55.532C21.4461 55.2304 21.8293 54.801 22.0817 54.244C22.334 53.6869 22.4602 53.0237 22.4602 52.2543C22.4602 51.491 22.3356 50.8339 22.0863 50.283C21.837 49.729 21.4646 49.3043 20.9691 49.0089C20.4736 48.7103 19.8565 48.5611 19.1179 48.5611H17.2898V55.9844ZM33.4659 52.2727C33.4659 53.2699 33.2859 54.1316 32.9258 54.858C32.5657 55.5843 32.0717 56.1444 31.4439 56.5384C30.8161 56.9323 30.099 57.1293 29.2926 57.1293C28.4863 57.1293 27.7692 56.9323 27.1413 56.5384C26.5135 56.1444 26.0195 55.5843 25.6594 54.858C25.2994 54.1316 25.1193 53.2699 25.1193 52.2727C25.1193 51.2756 25.2994 50.4138 25.6594 49.6875C26.0195 48.9612 26.5135 48.401 27.1413 48.0071C27.7692 47.6132 28.4863 47.4162 29.2926 47.4162C30.099 47.4162 30.8161 47.6132 31.4439 48.0071C32.0717 48.401 32.5657 48.9612 32.9258 49.6875C33.2859 50.4138 33.4659 51.2756 33.4659 52.2727ZM32.358 52.2727C32.358 51.4541 32.221 50.7631 31.9471 50.1999C31.6763 49.6367 31.3085 49.2105 30.8438 48.9212C30.3821 48.6319 29.8651 48.4872 29.2926 48.4872C28.7202 48.4872 28.2016 48.6319 27.7369 48.9212C27.2752 49.2105 26.9074 49.6367 26.6335 50.1999C26.3627 50.7631 26.2273 51.4541 26.2273 52.2727C26.2273 53.0914 26.3627 53.7823 26.6335 54.3455C26.9074 54.9087 27.2752 55.335 27.7369 55.6243C28.2016 55.9136 28.7202 56.0582 29.2926 56.0582C29.8651 56.0582 30.3821 55.9136 30.8438 55.6243C31.3085 55.335 31.6763 54.9087 31.9471 54.3455C32.221 53.7823 32.358 53.0914 32.358 52.2727ZM42.9989 50.5H41.854C41.7863 50.1707 41.6679 49.8814 41.4986 49.6321C41.3324 49.3828 41.1293 49.1735 40.8892 49.0043C40.6522 48.8319 40.3891 48.7027 40.0998 48.6165C39.8105 48.5303 39.5089 48.4872 39.195 48.4872C38.6225 48.4872 38.1039 48.6319 37.6392 48.9212C37.1776 49.2105 36.8098 49.6367 36.5359 50.1999C36.265 50.7631 36.1296 51.4541 36.1296 52.2727C36.1296 53.0914 36.265 53.7823 36.5359 54.3455C36.8098 54.9087 37.1776 55.335 37.6392 55.6243C38.1039 55.9136 38.6225 56.0582 39.195 56.0582C39.5089 56.0582 39.8105 56.0152 40.0998 55.929C40.3891 55.8428 40.6522 55.7151 40.8892 55.5458C41.1293 55.3735 41.3324 55.1626 41.4986 54.9134C41.6679 54.661 41.7863 54.3717 41.854 54.0455H42.9989C42.9128 54.5286 42.7558 54.9611 42.5281 55.3427C42.3003 55.7243 42.0172 56.049 41.6786 56.3168C41.3401 56.5814 40.96 56.783 40.5384 56.9215C40.1198 57.06 39.672 57.1293 39.195 57.1293C38.3886 57.1293 37.6715 56.9323 37.0437 56.5384C36.4158 56.1444 35.9219 55.5843 35.5618 54.858C35.2017 54.1316 35.0217 53.2699 35.0217 52.2727C35.0217 51.2756 35.2017 50.4138 35.5618 49.6875C35.9219 48.9612 36.4158 48.401 37.0437 48.0071C37.6715 47.6132 38.3886 47.4162 39.195 47.4162C39.672 47.4162 40.1198 47.4854 40.5384 47.6239C40.96 47.7624 41.3401 47.9656 41.6786 48.2333C42.0172 48.498 42.3003 48.8211 42.5281 49.2028C42.7558 49.5813 42.9128 50.0137 42.9989 50.5Z" fill="#535353"/>
<path d="M40 24.9V4.24998C40 4.15971 40.1102 4.11565 40.1724 4.18102L59.8391 24.831C59.8997 24.8947 59.8546 25 59.7667 25H40.1C40.0448 25 40 24.9552 40 24.9Z" fill="#F2F2F2" stroke="#F2F2F2" stroke-width="3"/>
<path d="M62.0001 2.1L62.1032 22.7497C62.1037 22.84 61.9938 22.8846 61.9312 22.8196L42.1616 2.26806C42.1007 2.2047 42.1453 2.09918 42.2332 2.09874L61.8996 2.0005C61.9548 2.00022 61.9998 2.04477 62.0001 2.1Z" fill="#F7F7F7" stroke="#F7F7F7" stroke-width="3"/>
</svg>
