<svg width="236" height="117" viewBox="0 0 236 117" fill="none" xmlns="http://www.w3.org/2000/svg">
    <path d="M49.3033 26.9054C51.8218 26.9054 53.8635 24.8704 53.8635 22.3601C53.8635 19.8498 51.8218 17.8148 49.3033 17.8148C46.7848 17.8148 44.7432 19.8498 44.7432 22.3601C44.7432 24.8704 46.7848 26.9054 49.3033 26.9054Z" stroke="#295A9C" stroke-width="2"/>
    <path d="M46.8384 26.66V57.3735M51.7685 26.66L51.4605 57.3735" stroke="#295A9C" stroke-width="2"/>
    <path d="M55.1402 62.1563V57.9478C55.1402 57.4451 54.7187 57.0375 54.1988 57.0375H49.2586H44.3184C43.7985 57.0375 43.377 57.4451 43.377 57.9478V62.1563" stroke="#295A9C" stroke-width="2"/>
    <path d="M36.7603 62.5223C36.7603 61.9161 37.3201 61.425 38.0105 61.425H60.5068C61.1973 61.425 61.7571 61.9161 61.7571 62.5223V68.0062H36.7603V62.5223Z" stroke="#295A9C" stroke-width="2"/>
    <path d="M85.6644 68.4305L86.5825 68.7898L87.1117 67.4473H85.6644V68.4305ZM20.0301 68.4305V67.4473H20.0104L19.9907 67.448L20.0301 68.4305ZM85.6644 85.9372V86.9204H87.0937L86.5867 85.5884L85.6644 85.9372ZM20.6461 76.3543C20.1013 76.3543 19.6596 76.7945 19.6596 77.3375C19.6596 77.8805 20.1013 78.3207 20.6461 78.3207V76.3543ZM28.0414 82.5587H27.055C27.055 82.9107 27.2439 83.2359 27.5502 83.4114C27.8565 83.5867 28.2336 83.5854 28.5386 83.408L28.0414 82.5587ZM31.7393 80.4087L32.2068 79.543L31.7198 79.2817L31.2421 79.5595L31.7393 80.4087ZM35.7451 82.5587L35.2773 83.4244C35.5831 83.5884 35.9527 83.5803 36.2509 83.4028C36.549 83.2253 36.7315 82.9048 36.7315 82.5587H35.7451ZM85.6644 67.4473H20.0301V69.4137H85.6644V67.4473ZM19.9907 67.448C18.5393 67.5058 16.4815 68.0207 14.7244 69.3854C12.9315 70.7781 11.5095 73.0141 11.3413 76.3668L13.3117 76.4651C13.4512 73.683 14.5971 71.9774 15.9371 70.9364C17.3129 69.8679 18.953 69.4574 20.0695 69.4129L19.9907 67.448ZM11.3413 76.3668C11.0176 82.8212 14.6204 86.9204 18.4894 86.9204V84.954C16.1948 84.954 13.0192 82.2962 13.3117 76.4651L11.3413 76.3668ZM18.4894 86.9204H85.6644V84.954H18.4894V86.9204ZM86.5867 85.5884C85.985 84.007 85.219 80.9183 85.1576 77.3208L83.185 77.3542C83.2502 81.1803 84.06 84.4934 84.7421 86.286L86.5867 85.5884ZM85.1576 77.3208C85.111 74.5927 85.4706 71.6114 86.5825 68.7898L84.7463 68.0709C83.5167 71.1908 83.1355 74.441 83.185 77.3542L85.1576 77.3208ZM20.6461 78.3207H28.0414V76.3543H20.6461V78.3207ZM27.055 77.3375V82.5587H29.0279V77.3375H27.055ZM28.5386 83.408L32.2362 81.258L31.2421 79.5595L27.5445 81.7095L28.5386 83.408ZM31.2715 81.2744L35.2773 83.4244L36.2127 81.693L32.2068 79.543L31.2715 81.2744ZM28.0414 78.3207H35.7451V76.3543H28.0414V78.3207ZM35.7451 78.3207H84.1715V76.3543H35.7451V78.3207ZM36.7315 82.5587V77.3375H34.7587V82.5587H36.7315Z" fill="#295A9C"/>
    <path d="M54.2338 22.36H57.6234L61.9375 25.1243H68.4083C69.6409 25.1243 72.1678 25.9226 72.4142 29.117H52.385" stroke="#295A9C" stroke-width="2"/>
    <path d="M44.3448 22.36H40.9032L36.5228 25.1243H29.9523C28.7007 25.1243 26.1351 25.9226 25.8848 29.117H46.2222" stroke="#295A9C" stroke-width="2"/>
    <path d="M64.4023 29.117V31.267C64.4023 31.9838 64.8336 33.417 66.5594 33.417" stroke="#295A9C" stroke-width="2"/>
    <path d="M29.5823 29.117V31.267C29.5823 31.9838 30.0138 33.417 31.7393 33.417" stroke="#295A9C" stroke-width="2"/>
    <path d="M69.0246 29.7313V31.5743C68.7164 32.8028 68.1001 33.417 66.5596 33.417" stroke="#295A9C" stroke-width="2"/>
    <path d="M34.2041 29.7313V31.5743C33.8961 32.8028 33.2798 33.417 31.739 33.417" stroke="#295A9C" stroke-width="2"/>
    <path d="M24.0356 46.3168L31.7392 33.417L39.1346 46.3168M24.0356 46.3168H39.1346M24.0356 46.3168L24.9601 49.0808C25.1655 49.7975 25.8846 51.2922 27.1171 51.538C27.4251 51.6403 28.7193 51.845 31.431 51.845H34.2043C36.0533 51.845 36.9776 50.9238 37.5939 50.0023C38.2054 49.0879 38.8264 47.1358 39.1346 46.3168" stroke="#295A9C" stroke-width="2" stroke-linejoin="round"/>
    <path d="M59.1638 46.931L66.8675 34.0312L74.2629 46.931M59.1638 46.931H74.2629M59.1638 46.931L60.0883 49.6952C60.2938 50.412 61.0126 51.9067 62.2454 52.1522C62.5534 52.2547 63.8476 52.4595 66.5592 52.4595H69.3325C71.1813 52.4595 72.1058 51.538 72.7221 50.6167C73.3337 49.7024 73.9546 47.75 74.2629 46.931" stroke="#295A9C" stroke-width="2" stroke-linejoin="round"/>
    <path d="M14.0099 9.76343L1.55468 27.4839C12.282 36.1299 7.96226 53.4931 5.80238 58.0662C4.0745 61.7246 2.25063 67.641 1.55468 70.142C-0.0292204 83.2895 4.57848 87.4337 7.96226 91.3637C10.6693 94.5077 22.4813 102.534 28.0489 106.155L48.7836 115.729C57.447 111.895 76.9048 102.453 85.4292 95.3651C93.9533 88.277 96.1323 80.1693 96.1564 77.0015C96.8043 74.8817 96.6748 67.5695 90.9728 55.2796C85.2706 42.9894 92.0527 31.6283 96.1564 27.4839L83.7012 9.76343C69.7629 13.4219 54.6153 5.76203 48.7836 1.47479C38.7041 11.0782 21.4014 11.002 14.0099 9.76343Z" stroke="#295A9C" stroke-width="2"/>
    <path d="M134.806 27.7752C135.45 27.7752 136.061 27.8728 136.636 28.0677C137.223 28.2513 137.7 28.4806 138.069 28.7559C138.437 29.0197 138.759 29.2893 139.035 29.5646C139.312 29.8284 139.507 30.0579 139.622 30.2529L139.812 30.5281L138 31.5605C137.965 31.5145 137.919 31.4516 137.862 31.3712C137.804 31.2796 137.672 31.1247 137.464 30.9067C137.269 30.6887 137.056 30.4994 136.826 30.3389C136.596 30.1668 136.296 30.012 135.928 29.8743C135.571 29.7367 135.197 29.6679 134.806 29.6679C133.747 29.6679 132.821 30.0923 132.027 30.9411C131.233 31.7785 130.836 32.7878 130.836 33.9693C130.836 35.1509 131.233 36.166 132.027 37.0148C132.821 37.8522 133.747 38.2708 134.806 38.2708C135.22 38.2708 135.617 38.1963 135.997 38.0471C136.389 37.8979 136.711 37.7202 136.964 37.5137C137.217 37.3073 137.436 37.1008 137.62 36.8943C137.815 36.6763 137.953 36.4929 138.034 36.3437L138.172 36.1201L139.985 37.1524C139.939 37.2328 139.876 37.3417 139.795 37.4793C139.714 37.617 139.519 37.8579 139.208 38.202C138.897 38.5461 138.558 38.8501 138.189 39.1139C137.833 39.3776 137.349 39.6185 136.739 39.8365C136.13 40.0546 135.485 40.1634 134.806 40.1634C133.114 40.1634 131.67 39.5612 130.473 38.3568C129.276 37.1524 128.678 35.6899 128.678 33.9693C128.678 32.2487 129.276 30.7862 130.473 29.5818C131.67 28.3774 133.114 27.7752 134.806 27.7752ZM145.767 32.7649H147.838L143.264 44.637H141.192L143.091 39.8193L140.416 32.7649H142.487L144.041 37.0664H144.213L145.767 32.7649ZM148.187 38.0987H148.619C149.079 37.6398 149.338 37.0951 149.395 36.4642L149.741 32.7649H155.178V38.0987H156.128V41.5399H154.229V39.8193H150.086V41.5399H148.187V38.0987ZM150.604 37.9267V38.0987H153.279V34.4855H151.467L151.294 36.4642C151.271 36.7395 151.202 37.0032 151.087 37.2556C150.972 37.4965 150.863 37.6686 150.759 37.7718L150.604 37.9267ZM164.068 36.9804H159.321C159.459 37.3933 159.689 37.7431 160.012 38.0299C160.345 38.3052 160.719 38.4429 161.134 38.4429C161.491 38.4429 161.813 38.3568 162.1 38.1848C162.388 38.0127 162.584 37.8406 162.687 37.6686L162.86 37.4105L164.5 38.2708C164.477 38.3168 164.437 38.3856 164.379 38.4773C164.333 38.5576 164.212 38.7066 164.017 38.9246C163.821 39.1426 163.602 39.3376 163.361 39.5096C163.131 39.6701 162.814 39.8193 162.411 39.957C162.008 40.0946 161.583 40.1634 161.134 40.1634C160.052 40.1634 159.131 39.7906 158.372 39.0451C157.624 38.288 157.25 37.3704 157.25 36.2921C157.25 35.2138 157.624 34.3019 158.372 33.5564C159.131 32.7993 160.052 32.4208 161.134 32.4208C162.17 32.4208 163.044 32.7937 163.758 33.5392C164.483 34.2847 164.845 35.1737 164.845 36.2061L164.068 36.9804ZM162.86 35.4318C162.48 34.5715 161.905 34.1414 161.134 34.1414C160.363 34.1414 159.787 34.5715 159.408 35.4318H162.86ZM169.849 34.4855C169.377 34.4855 168.969 34.6863 168.624 35.0877C168.29 35.4778 168.123 35.9365 168.123 36.4642C168.123 37.0032 168.296 37.4678 168.641 37.8579C168.997 38.2479 169.4 38.4429 169.849 38.4429C170.298 38.4429 170.695 38.2479 171.04 37.8579C171.397 37.4678 171.575 37.0032 171.575 36.4642C171.575 35.9251 171.397 35.4606 171.04 35.0705C170.695 34.6804 170.298 34.4855 169.849 34.4855ZM166.224 36.2921V32.7649C166.224 31.6866 166.581 30.7518 167.294 29.9604C168.008 29.1573 168.859 28.6643 169.849 28.4806L172.784 27.9473L173.043 29.6679L170.108 30.2012C169.556 30.3045 169.084 30.5854 168.693 31.0443C168.313 31.4917 168.123 32.0651 168.123 32.7649V33.6252H168.296C168.342 33.5564 168.411 33.476 168.503 33.3843C168.595 33.2926 168.802 33.1663 169.124 33.0058C169.458 32.8453 169.815 32.7649 170.195 32.7649C171.034 32.7649 171.806 33.1378 172.508 33.8833C173.209 34.6288 173.561 35.4891 173.561 36.4642C173.561 37.4506 173.187 38.3168 172.439 39.0623C171.702 39.7965 170.839 40.1634 169.849 40.1634C168.883 40.1634 168.037 39.7849 167.312 39.0279C166.587 38.2708 166.224 37.3589 166.224 36.2921ZM181.758 32.7649V39.8193H179.859V37.3245H177.097V39.8193H175.199V32.7649H177.097V35.6039H179.859V32.7649H181.758ZM188.676 37.8062C189.068 37.3817 189.263 36.8771 189.263 36.2921C189.263 35.7071 189.068 35.2025 188.676 34.778C188.285 34.3535 187.848 34.1414 187.364 34.1414C186.881 34.1414 186.444 34.3535 186.052 34.778C185.661 35.2025 185.465 35.7071 185.465 36.2921C185.465 36.8771 185.661 37.3817 186.052 37.8062C186.444 38.2307 186.881 38.4429 187.364 38.4429C187.848 38.4429 188.285 38.2307 188.676 37.8062ZM184.602 39.0451C183.854 38.288 183.48 37.3704 183.48 36.2921C183.48 35.2138 183.854 34.3019 184.602 33.5564C185.362 32.7993 186.282 32.4208 187.364 32.4208C188.446 32.4208 189.361 32.7993 190.109 33.5564C190.869 34.3019 191.248 35.2138 191.248 36.2921C191.248 37.3704 190.869 38.288 190.109 39.0451C189.361 39.7906 188.446 40.1634 187.364 40.1634C186.282 40.1634 185.362 39.7906 184.602 39.0451ZM198.231 36.034H192.362V34.3134H198.231V36.034ZM138.776 58.8441C137.407 58.8441 136.21 58.3567 135.186 57.3816C134.173 56.3952 133.558 55.1621 133.339 53.6823H131.526V58.5H129.455V46.8H131.526V51.7897H133.339C133.558 50.2412 134.173 48.9679 135.186 47.97C136.199 46.9605 137.395 46.4559 138.776 46.4559C140.273 46.4559 141.567 47.0465 142.66 48.2281C143.754 49.4096 144.3 50.8834 144.3 52.65C144.3 54.4165 143.754 55.8904 142.66 57.0719C141.567 58.2535 140.273 58.8441 138.776 58.8441ZM141.141 49.5357C140.474 48.7443 139.686 48.3485 138.776 48.3485C137.867 48.3485 137.079 48.7443 136.411 49.5357C135.744 50.3272 135.41 51.3652 135.41 52.65C135.41 53.9348 135.744 54.9728 136.411 55.7643C137.079 56.5557 137.867 56.9515 138.776 56.9515C139.686 56.9515 140.474 56.5557 141.141 55.7643C141.809 54.9728 142.143 53.9348 142.143 52.65C142.143 51.3652 141.809 50.3272 141.141 49.5357ZM148.018 54.6287V55.3169C148.018 55.7871 148.202 56.206 148.57 56.5729C148.938 56.9399 149.358 57.1235 149.83 57.1235C150.325 57.1235 150.751 56.9227 151.108 56.5213C151.464 56.1199 151.643 55.6038 151.643 54.9728C151.643 54.3418 151.464 53.8257 151.108 53.4243C150.751 53.0229 150.325 52.8221 149.83 52.8221C149.358 52.8221 148.938 53.0057 148.57 53.3726C148.202 53.7396 148.018 54.1585 148.018 54.6287ZM148.018 51.4456V52.1338H148.191C148.236 52.0534 148.305 51.9561 148.398 51.8413C148.501 51.7265 148.737 51.5776 149.105 51.394C149.474 51.199 149.888 51.1015 150.348 51.1015C151.2 51.1015 151.959 51.4743 152.627 52.2198C153.294 52.9654 153.628 53.8832 153.628 54.9728C153.628 56.0624 153.294 56.9802 152.627 57.7257C151.959 58.4712 151.2 58.8441 150.348 58.8441C150.061 58.8441 149.79 58.8097 149.537 58.7409C149.284 58.6721 149.077 58.586 148.916 58.4828C148.754 58.3796 148.616 58.2763 148.501 58.1731C148.386 58.0698 148.305 57.9838 148.26 57.915L148.191 57.8118H148.018V63.3176H146.119V51.4456H148.018ZM157.256 54.9728H157.429L161.399 51.2735H161.917V58.5H160.018V54.9728H159.845L155.875 58.6721H155.357V51.4456H157.256V54.9728ZM163.207 56.7794H163.639C164.099 56.3205 164.358 55.7758 164.416 55.1448L164.761 51.4456H170.198V56.7794H171.148V60.2206H169.249V58.5H165.106V60.2206H163.207V56.7794ZM165.624 56.6073V56.7794H168.3V53.1662H166.487L166.314 55.1448C166.292 55.4201 166.222 55.6839 166.107 55.9363C165.992 56.1772 165.883 56.3493 165.779 56.4525L165.624 56.6073ZM174.687 54.9728H174.859L178.83 51.2735H179.347V58.5H177.449V54.9728H177.276L173.306 58.6721H172.788V51.4456H174.687V54.9728ZM185.731 58.5V56.1772C185.155 56.4065 184.551 56.5213 183.918 56.5213C183.124 56.5213 182.479 56.2576 181.985 55.7298C181.49 55.2021 181.242 54.491 181.242 53.5963V51.4456H183.141V53.5963C183.141 53.9404 183.262 54.2273 183.504 54.4566C183.745 54.6859 184.056 54.8007 184.436 54.8007C184.62 54.8007 184.816 54.772 185.023 54.7147C185.241 54.6574 185.414 54.5999 185.541 54.5426L185.731 54.4566V51.4456H187.629V58.5H185.731ZM196.182 55.661H191.435C191.573 56.074 191.803 56.4237 192.126 56.7106C192.459 56.9859 192.833 57.1235 193.248 57.1235C193.604 57.1235 193.927 57.0375 194.214 56.8654C194.502 56.6934 194.698 56.5213 194.801 56.3493L194.974 56.0912L196.614 56.9515C196.591 56.9974 196.551 57.0663 196.493 57.1579C196.447 57.2383 196.326 57.3873 196.131 57.6053C195.935 57.8233 195.716 58.0182 195.475 58.1903C195.244 58.3508 194.928 58.5 194.525 58.6376C194.122 58.7753 193.697 58.8441 193.248 58.8441C192.166 58.8441 191.245 58.4712 190.486 57.7257C189.738 56.9687 189.364 56.0511 189.364 54.9728C189.364 53.8945 189.738 52.9826 190.486 52.2371C191.245 51.48 192.166 51.1015 193.248 51.1015C194.284 51.1015 195.158 51.4743 195.872 52.2198C196.597 52.9654 196.959 53.8544 196.959 54.8868L196.182 55.661ZM194.974 54.1125C194.594 53.2522 194.019 52.8221 193.248 52.8221C192.477 52.8221 191.901 53.2522 191.522 54.1125H194.974ZM201.963 57.1235C202.32 57.1235 202.642 57.0259 202.93 56.831C203.217 56.6246 203.413 56.4237 203.517 56.2288L203.689 55.9191L205.329 56.7794C205.306 56.8367 205.266 56.9114 205.208 57.0031C205.162 57.0948 205.042 57.2612 204.846 57.5021C204.65 57.7314 204.432 57.9379 204.19 58.1215C203.96 58.3051 203.643 58.4712 203.24 58.6204C202.838 58.7696 202.412 58.8441 201.963 58.8441C200.881 58.8441 199.961 58.4712 199.201 57.7257C198.453 56.9687 198.079 56.0511 198.079 54.9728C198.079 53.8945 198.453 52.9826 199.201 52.2371C199.961 51.48 200.881 51.1015 201.963 51.1015C202.4 51.1015 202.809 51.1703 203.189 51.3079C203.58 51.434 203.891 51.5889 204.121 51.7725C204.362 51.9561 204.57 52.1395 204.742 52.3231C204.926 52.5067 205.059 52.6615 205.139 52.7876L205.243 52.9941L203.603 53.8544C203.592 53.8316 203.568 53.7971 203.534 53.7512C203.511 53.6939 203.448 53.6079 203.344 53.4931C203.252 53.3783 203.143 53.2751 203.016 53.1834C202.901 53.0917 202.746 53.0113 202.55 52.9425C202.366 52.8621 202.17 52.8221 201.963 52.8221C201.48 52.8221 201.042 53.0342 200.651 53.4587C200.26 53.8832 200.064 54.3878 200.064 54.9728C200.064 55.5578 200.26 56.0624 200.651 56.4869C201.042 56.9114 201.48 57.1235 201.963 57.1235ZM208.689 51.4456V58.5H206.79V51.4456H208.689ZM213.177 51.4456L211.019 54.8868L213.436 58.5H211.364L209.034 54.8868L211.105 51.4456H213.177ZM216.713 54.9728H216.886L220.856 51.2735H221.374V58.5H219.475V54.9728H219.302L215.332 58.6721H214.814V51.4456H216.713V54.9728ZM225.513 54.9728H225.685L229.656 51.2735H230.174V58.5H228.275V54.9728H228.102L224.132 58.6721H223.614V51.4456H225.513V54.9728ZM226.376 48.0732C226.56 48.2568 226.761 48.3485 226.98 48.3485C227.198 48.3485 227.394 48.2568 227.567 48.0732C227.751 47.8783 227.843 47.6546 227.843 47.4022H229.224C229.224 48.0904 229.011 48.6526 228.585 49.0884C228.171 49.5129 227.636 49.725 226.98 49.725C226.324 49.725 225.783 49.5129 225.357 49.0884C224.943 48.6526 224.736 48.0904 224.736 47.4022H226.117C226.117 47.6546 226.203 47.8783 226.376 48.0732ZM137.05 77.1807H129.455V65.4807H131.526V75.288H135.756V65.4807H137.827V75.288H139.122V79.2454H137.05V77.1807ZM147.228 74.3417H142.48C142.619 74.7546 142.849 75.1044 143.171 75.3913C143.505 75.6665 143.879 75.8042 144.293 75.8042C144.65 75.8042 144.972 75.7182 145.26 75.5461C145.547 75.3741 145.743 75.202 145.847 75.0299L146.019 74.7718L147.659 75.6321C147.636 75.6781 147.596 75.7469 147.538 75.8386C147.492 75.919 147.371 76.0679 147.176 76.286C146.98 76.504 146.761 76.6989 146.52 76.871C146.29 77.0315 145.973 77.1807 145.57 77.3183C145.168 77.456 144.742 77.5248 144.293 77.5248C143.211 77.5248 142.291 77.1519 141.531 76.4064C140.783 75.6493 140.409 74.7318 140.409 73.6535C140.409 72.5751 140.783 71.6632 141.531 70.9177C142.291 70.1607 143.211 69.7821 144.293 69.7821C145.329 69.7821 146.203 70.155 146.917 70.9005C147.642 71.646 148.004 72.5351 148.004 73.5674L147.228 74.3417ZM146.019 72.7932C145.639 71.9329 145.064 71.5027 144.293 71.5027C143.522 71.5027 142.946 71.9329 142.567 72.7932H146.019ZM156.202 70.1263V77.1807H154.303V74.6858H151.541V77.1807H149.642V70.1263H151.541V72.9652H154.303V70.1263H156.202ZM157.665 71.8468V70.1263H164.052V71.8468H161.808V77.1807H159.909V71.8468H157.665ZM167.421 73.3093V73.9976C167.421 74.4678 167.605 74.8866 167.973 75.2536C168.342 75.6206 168.762 75.8042 169.233 75.8042C169.728 75.8042 170.154 75.6034 170.511 75.202C170.868 74.8006 171.046 74.2844 171.046 73.6535C171.046 73.0225 170.868 72.5063 170.511 72.1049C170.154 71.7035 169.728 71.5027 169.233 71.5027C168.762 71.5027 168.342 71.6863 167.973 72.0533C167.605 72.4203 167.421 72.8391 167.421 73.3093ZM167.421 70.1263V70.8145H167.594C167.64 70.7341 167.709 70.6368 167.801 70.522C167.904 70.4072 168.14 70.2582 168.508 70.0746C168.877 69.8797 169.291 69.7821 169.751 69.7821C170.603 69.7821 171.363 70.155 172.03 70.9005C172.698 71.646 173.031 72.5638 173.031 73.6535C173.031 74.7431 172.698 75.6609 172.03 76.4064C171.363 77.1519 170.603 77.5248 169.751 77.5248C169.464 77.5248 169.193 77.4904 168.94 77.4216C168.687 77.3527 168.48 77.2667 168.319 77.1635C168.158 77.0602 168.019 76.957 167.904 76.8538C167.789 76.7505 167.709 76.6645 167.663 76.5957L167.594 76.4924H167.421V81.9983H165.522V70.1263H167.421Z" fill="#295A9C"/>
    <path d="M113.438 11.5525V105.57" stroke="#295A9C" stroke-width="2" stroke-linejoin="round"/>
</svg>
