<svg width="64" height="84" viewBox="0 0 64 84" fill="none" xmlns="http://www.w3.org/2000/svg">
<rect y="3" width="61" height="81" rx="4" fill="#DEE7F2"/>
<path d="M17.1449 57V47.5455H20.3395C21.0812 47.5455 21.6875 47.6793 22.1584 47.9471C22.6323 48.2118 22.9832 48.5703 23.2109 49.0227C23.4387 49.4751 23.5526 49.9799 23.5526 50.5369C23.5526 51.094 23.4387 51.6003 23.2109 52.0558C22.9863 52.5112 22.6385 52.8744 22.1676 53.1452C21.6967 53.413 21.0935 53.5469 20.358 53.5469H18.0682V52.5312H20.321C20.8288 52.5312 21.2366 52.4435 21.5444 52.2681C21.8522 52.0927 22.0753 51.8557 22.2138 51.5572C22.3554 51.2556 22.4261 50.9155 22.4261 50.5369C22.4261 50.1584 22.3554 49.8198 22.2138 49.5213C22.0753 49.2228 21.8506 48.9889 21.5398 48.8196C21.2289 48.6473 20.8165 48.5611 20.3026 48.5611H18.2898V57H17.1449ZM28.3145 57H25.3968V47.5455H28.4437C29.3609 47.5455 30.1457 47.7347 30.7981 48.1133C31.4506 48.4888 31.9507 49.0289 32.2985 49.7337C32.6462 50.4354 32.8201 51.2756 32.8201 52.2543C32.8201 53.2391 32.6447 54.087 32.2939 54.7979C31.943 55.5058 31.4321 56.0505 30.7612 56.4322C30.0903 56.8107 29.2747 57 28.3145 57ZM26.5417 55.9844H28.2406C29.0223 55.9844 29.6702 55.8336 30.1841 55.532C30.6981 55.2304 31.0813 54.801 31.3336 54.244C31.586 53.6869 31.7122 53.0237 31.7122 52.2543C31.7122 51.491 31.5875 50.8339 31.3382 50.283C31.089 49.729 30.7166 49.3043 30.2211 49.0089C29.7256 48.7103 29.1085 48.5611 28.3699 48.5611H26.5417V55.9844ZM34.7406 57V47.5455H40.4096V48.5611H35.8855V51.7557H39.9849V52.7713H35.8855V57H34.7406Z" fill="#535353"/>
<path d="M40 24.9V4.24998C40 4.15971 40.1102 4.11565 40.1724 4.18102L59.8391 24.831C59.8997 24.8947 59.8546 25 59.7667 25H40.1C40.0448 25 40 24.9552 40 24.9Z" fill="#F2F2F2" stroke="#F2F2F2" stroke-width="3"/>
<path d="M62.0001 2.1L62.1032 22.7497C62.1037 22.84 61.9938 22.8846 61.9312 22.8196L42.1616 2.26806C42.1007 2.2047 42.1453 2.09918 42.2332 2.09874L61.8996 2.0005C61.9548 2.00022 61.9998 2.04477 62.0001 2.1Z" fill="#F7F7F7" stroke="#F7F7F7" stroke-width="3"/>
</svg>
