<svg width="68" height="68" viewBox="0 0 68 68" fill="none" xmlns="http://www.w3.org/2000/svg">
<mask id="mask0_44_1982" style="mask-type:luminance" maskUnits="userSpaceOnUse" x="0" y="0" width="68" height="68">
<path d="M67.8821 0.188141H0.493683V67.7143H67.8821V0.188141Z" fill="white"/>
</mask>
<g mask="url(#mask0_44_1982)">
<path d="M2.8166 0.188141H0.493683V2.51664H2.8166V0.188141Z" fill="white"/>
<path d="M5.1395 0.188141H2.81659V2.51664H5.1395V0.188141Z" fill="white"/>
<path d="M7.46638 0.188141H5.1395V2.51664H7.46638V0.188141Z" fill="white"/>
<path d="M9.78929 0.188141H7.46638V2.51664H9.78929V0.188141Z" fill="white"/>
<path d="M12.1123 0.188141H9.78929V2.51664H12.1123V0.188141Z" fill="white"/>
<path d="M14.4352 0.188141H12.1123V2.51664H14.4352V0.188141Z" fill="white"/>
<path d="M16.7581 0.188141H14.4352V2.51664H16.7581V0.188141Z" fill="white"/>
<path d="M26.0537 0.188141H23.7308V2.51664H26.0537V0.188141Z" fill="white"/>
<path d="M28.3766 0.188141H26.0537V2.51664H28.3766V0.188141Z" fill="white"/>
<path d="M30.7035 0.188141H28.3766V2.51664H30.7035V0.188141Z" fill="white"/>
<path d="M33.0264 0.188141H30.7035V2.51664H33.0264V0.188141Z" fill="white"/>
<path d="M39.9992 0.188141H37.6723V2.51664H39.9992V0.188141Z" fill="white"/>
<path d="M46.9679 0.188141H44.645V2.51664H46.9679V0.188141Z" fill="white"/>
<path d="M53.9406 0.188141H51.6177V2.51664H53.9406V0.188141Z" fill="white"/>
<path d="M56.2635 0.188141H53.9406V2.51664H56.2635V0.188141Z" fill="white"/>
<path d="M58.5865 0.188141H56.2635V2.51664H58.5865V0.188141Z" fill="white"/>
<path d="M60.9094 0.188141H58.5865V2.51664H60.9094V0.188141Z" fill="white"/>
<path d="M63.2363 0.188141H60.9094V2.51664H63.2363V0.188141Z" fill="white"/>
<path d="M65.5592 0.188141H63.2363V2.51664H65.5592V0.188141Z" fill="white"/>
<path d="M67.8821 0.188141H65.5592V2.51664H67.8821V0.188141Z" fill="white"/>
<path d="M2.81658 2.51672H0.493668V4.84523H2.81658V2.51672Z" fill="white"/>
<path d="M16.7581 2.51672H14.4352V4.84523H16.7581V2.51672Z" fill="white"/>
<path d="M21.4079 2.51672H19.085V4.84523H21.4079V2.51672Z" fill="white"/>
<path d="M23.7308 2.51672H21.4079V4.84523H23.7308V2.51672Z" fill="white"/>
<path d="M28.3766 2.51672H26.0537V4.84523H28.3766V2.51672Z" fill="white"/>
<path d="M30.7035 2.51672H28.3766V4.84523H30.7035V2.51672Z" fill="white"/>
<path d="M33.0264 2.51672H30.7035V4.84523H33.0264V2.51672Z" fill="white"/>
<path d="M39.9992 2.51672H37.6723V4.84523H39.9992V2.51672Z" fill="white"/>
<path d="M42.3221 2.51672H39.9991V4.84523H42.3221V2.51672Z" fill="white"/>
<path d="M46.9679 2.51672H44.645V4.84523H46.9679V2.51672Z" fill="white"/>
<path d="M53.9406 2.51672H51.6177V4.84523H53.9406V2.51672Z" fill="white"/>
<path d="M67.8821 2.51672H65.5592V4.84523H67.8821V2.51672Z" fill="white"/>
<path d="M2.81658 4.84509H0.493668V7.17359H2.81658V4.84509Z" fill="white"/>
<path d="M7.46638 4.84509H5.1395V7.17359H7.46638V4.84509Z" fill="white"/>
<path d="M9.78929 4.84509H7.46638V7.17359H9.78929V4.84509Z" fill="white"/>
<path d="M12.1123 4.84509H9.78929V7.17359H12.1123V4.84509Z" fill="white"/>
<path d="M16.7581 4.84509H14.4352V7.17359H16.7581V4.84509Z" fill="white"/>
<path d="M26.0537 4.84509H23.7308V7.17359H26.0537V4.84509Z" fill="white"/>
<path d="M28.3766 4.84509H26.0537V7.17359H28.3766V4.84509Z" fill="white"/>
<path d="M30.7035 4.84509H28.3766V7.17359H30.7035V4.84509Z" fill="white"/>
<path d="M46.9679 4.84509H44.645V7.17359H46.9679V4.84509Z" fill="white"/>
<path d="M49.2908 4.84509H46.9679V7.17359H49.2908V4.84509Z" fill="white"/>
<path d="M53.9406 4.84509H51.6177V7.17359H53.9406V4.84509Z" fill="white"/>
<path d="M58.5865 4.84509H56.2635V7.17359H58.5865V4.84509Z" fill="white"/>
<path d="M60.9094 4.84509H58.5865V7.17359H60.9094V4.84509Z" fill="white"/>
<path d="M63.2363 4.84509H60.9094V7.17359H63.2363V4.84509Z" fill="white"/>
<path d="M67.8821 4.84509H65.5592V7.17359H67.8821V4.84509Z" fill="white"/>
<path d="M2.81658 7.17368H0.493668V9.50217H2.81658V7.17368Z" fill="white"/>
<path d="M7.46638 7.17368H5.1395V9.50217H7.46638V7.17368Z" fill="white"/>
<path d="M9.78929 7.17368H7.46638V9.50217H9.78929V7.17368Z" fill="white"/>
<path d="M12.1123 7.17368H9.78929V9.50217H12.1123V7.17368Z" fill="white"/>
<path d="M16.7581 7.17368H14.4352V9.50217H16.7581V7.17368Z" fill="white"/>
<path d="M26.0537 7.17368H23.7308V9.50217H26.0537V7.17368Z" fill="white"/>
<path d="M28.3766 7.17368H26.0537V9.50217H28.3766V7.17368Z" fill="white"/>
<path d="M35.3494 7.17368H33.0264V9.50217H35.3494V7.17368Z" fill="white"/>
<path d="M44.645 7.17368H42.3221V9.50217H44.645V7.17368Z" fill="white"/>
<path d="M49.2908 7.17368H46.9679V9.50217H49.2908V7.17368Z" fill="white"/>
<path d="M53.9406 7.17368H51.6177V9.50217H53.9406V7.17368Z" fill="white"/>
<path d="M58.5865 7.17368H56.2635V9.50217H58.5865V7.17368Z" fill="white"/>
<path d="M60.9094 7.17368H58.5865V9.50217H60.9094V7.17368Z" fill="white"/>
<path d="M63.2363 7.17368H60.9094V9.50217H63.2363V7.17368Z" fill="white"/>
<path d="M67.8821 7.17368H65.5592V9.50217H67.8821V7.17368Z" fill="white"/>
<path d="M2.81658 9.50208H0.493668V11.8305H2.81658V9.50208Z" fill="white"/>
<path d="M7.46638 9.50208H5.1395V11.8305H7.46638V9.50208Z" fill="white"/>
<path d="M9.78929 9.50208H7.46638V11.8305H9.78929V9.50208Z" fill="white"/>
<path d="M12.1123 9.50208H9.78929V11.8305H12.1123V9.50208Z" fill="white"/>
<path d="M16.7581 9.50208H14.4352V11.8305H16.7581V9.50208Z" fill="white"/>
<path d="M23.7308 9.50208H21.4079V11.8305H23.7308V9.50208Z" fill="white"/>
<path d="M37.6723 9.50208H35.3493V11.8305H37.6723V9.50208Z" fill="white"/>
<path d="M49.2908 9.50208H46.9679V11.8305H49.2908V9.50208Z" fill="white"/>
<path d="M53.9406 9.50208H51.6177V11.8305H53.9406V9.50208Z" fill="white"/>
<path d="M58.5865 9.50208H56.2635V11.8305H58.5865V9.50208Z" fill="white"/>
<path d="M60.9094 9.50208H58.5865V11.8305H60.9094V9.50208Z" fill="white"/>
<path d="M63.2363 9.50208H60.9094V11.8305H63.2363V9.50208Z" fill="white"/>
<path d="M67.8821 9.50208H65.5592V11.8305H67.8821V9.50208Z" fill="white"/>
<path d="M2.81658 11.8308H0.493668V14.1593H2.81658V11.8308Z" fill="white"/>
<path d="M16.7581 11.8308H14.4352V14.1593H16.7581V11.8308Z" fill="white"/>
<path d="M21.4079 11.8308H19.085V14.1593H21.4079V11.8308Z" fill="white"/>
<path d="M23.7308 11.8308H21.4079V14.1593H23.7308V11.8308Z" fill="white"/>
<path d="M30.7035 11.8308H28.3766V14.1593H30.7035V11.8308Z" fill="white"/>
<path d="M37.6723 11.8308H35.3493V14.1593H37.6723V11.8308Z" fill="white"/>
<path d="M39.9992 11.8308H37.6723V14.1593H39.9992V11.8308Z" fill="white"/>
<path d="M44.645 11.8308H42.3221V14.1593H44.645V11.8308Z" fill="white"/>
<path d="M46.9679 11.8308H44.645V14.1593H46.9679V11.8308Z" fill="white"/>
<path d="M49.2908 11.8308H46.9679V14.1593H49.2908V11.8308Z" fill="white"/>
<path d="M53.9406 11.8308H51.6177V14.1593H53.9406V11.8308Z" fill="white"/>
<path d="M67.8821 11.8308H65.5592V14.1593H67.8821V11.8308Z" fill="white"/>
<path d="M2.81658 14.1589H0.493668V16.4874H2.81658V14.1589Z" fill="white"/>
<path d="M5.1395 14.1589H2.81659V16.4874H5.1395V14.1589Z" fill="white"/>
<path d="M7.46638 14.1589H5.1395V16.4874H7.46638V14.1589Z" fill="white"/>
<path d="M9.78929 14.1589H7.46638V16.4874H9.78929V14.1589Z" fill="white"/>
<path d="M12.1123 14.1589H9.78929V16.4874H12.1123V14.1589Z" fill="white"/>
<path d="M14.4352 14.1589H12.1123V16.4874H14.4352V14.1589Z" fill="white"/>
<path d="M16.7581 14.1589H14.4352V16.4874H16.7581V14.1589Z" fill="white"/>
<path d="M21.4079 14.1589H19.085V16.4874H21.4079V14.1589Z" fill="white"/>
<path d="M26.0537 14.1589H23.7308V16.4874H26.0537V14.1589Z" fill="white"/>
<path d="M30.7035 14.1589H28.3766V16.4874H30.7035V14.1589Z" fill="white"/>
<path d="M35.3494 14.1589H33.0264V16.4874H35.3494V14.1589Z" fill="white"/>
<path d="M39.9992 14.1589H37.6723V16.4874H39.9992V14.1589Z" fill="white"/>
<path d="M44.645 14.1589H42.3221V16.4874H44.645V14.1589Z" fill="white"/>
<path d="M49.2908 14.1589H46.9679V16.4874H49.2908V14.1589Z" fill="white"/>
<path d="M53.9406 14.1589H51.6177V16.4874H53.9406V14.1589Z" fill="white"/>
<path d="M56.2635 14.1589H53.9406V16.4874H56.2635V14.1589Z" fill="white"/>
<path d="M58.5865 14.1589H56.2635V16.4874H58.5865V14.1589Z" fill="white"/>
<path d="M60.9094 14.1589H58.5865V16.4874H60.9094V14.1589Z" fill="white"/>
<path d="M63.2363 14.1589H60.9094V16.4874H63.2363V14.1589Z" fill="white"/>
<path d="M65.5592 14.1589H63.2363V16.4874H65.5592V14.1589Z" fill="white"/>
<path d="M67.8821 14.1589H65.5592V16.4874H67.8821V14.1589Z" fill="white"/>
<path d="M21.4079 16.4878H19.085V18.8162H21.4079V16.4878Z" fill="white"/>
<path d="M23.7308 16.4878H21.4079V18.8162H23.7308V16.4878Z" fill="white"/>
<path d="M28.3766 16.4878H26.0537V18.8162H28.3766V16.4878Z" fill="white"/>
<path d="M30.7035 16.4878H28.3766V18.8162H30.7035V16.4878Z" fill="white"/>
<path d="M35.3494 16.4878H33.0264V18.8162H35.3494V16.4878Z" fill="white"/>
<path d="M42.3221 16.4878H39.9991V18.8162H42.3221V16.4878Z" fill="white"/>
<path d="M46.9679 16.4878H44.645V18.8162H46.9679V16.4878Z" fill="white"/>
<path d="M49.2908 16.4878H46.9679V18.8162H49.2908V16.4878Z" fill="white"/>
<path d="M12.1123 18.8158H9.78929V21.1447H12.1123V18.8158Z" fill="white"/>
<path d="M14.4352 18.8158H12.1123V21.1447H14.4352V18.8158Z" fill="white"/>
<path d="M16.7581 18.8158H14.4352V21.1447H16.7581V18.8158Z" fill="white"/>
<path d="M19.085 18.8158H16.7581V21.1447H19.085V18.8158Z" fill="white"/>
<path d="M33.0264 18.8158H30.7035V21.1447H33.0264V18.8158Z" fill="white"/>
<path d="M37.6723 18.8158H35.3493V21.1447H37.6723V18.8158Z" fill="white"/>
<path d="M44.645 18.8158H42.3221V21.1447H44.645V18.8158Z" fill="white"/>
<path d="M46.9679 18.8158H44.645V21.1447H46.9679V18.8158Z" fill="white"/>
<path d="M49.2908 18.8158H46.9679V21.1447H49.2908V18.8158Z" fill="white"/>
<path d="M53.9406 18.8158H51.6177V21.1447H53.9406V18.8158Z" fill="white"/>
<path d="M56.2635 18.8158H53.9406V21.1447H56.2635V18.8158Z" fill="white"/>
<path d="M65.5592 18.8158H63.2363V21.1447H65.5592V18.8158Z" fill="white"/>
<path d="M2.81658 21.1447H0.493668V23.4731H2.81658V21.1447Z" fill="white"/>
<path d="M7.46638 21.1447H5.1395V23.4731H7.46638V21.1447Z" fill="white"/>
<path d="M9.78929 21.1447H7.46638V23.4731H9.78929V21.1447Z" fill="white"/>
<path d="M12.1123 21.1447H9.78929V23.4731H12.1123V21.1447Z" fill="white"/>
<path d="M14.4352 21.1447H12.1123V23.4731H14.4352V21.1447Z" fill="white"/>
<path d="M23.7308 21.1447H21.4079V23.4731H23.7308V21.1447Z" fill="white"/>
<path d="M26.0537 21.1447H23.7308V23.4731H26.0537V21.1447Z" fill="white"/>
<path d="M35.3494 21.1447H33.0264V23.4731H35.3494V21.1447Z" fill="white"/>
<path d="M37.6723 21.1447H35.3493V23.4731H37.6723V21.1447Z" fill="white"/>
<path d="M42.3221 21.1447H39.9991V23.4731H42.3221V21.1447Z" fill="white"/>
<path d="M44.645 21.1447H42.3221V23.4731H44.645V21.1447Z" fill="white"/>
<path d="M49.2908 21.1447H46.9679V23.4731H49.2908V21.1447Z" fill="white"/>
<path d="M56.2635 21.1447H53.9406V23.4731H56.2635V21.1447Z" fill="white"/>
<path d="M58.5865 21.1447H56.2635V23.4731H58.5865V21.1447Z" fill="white"/>
<path d="M63.2363 21.1447H60.9094V23.4731H63.2363V21.1447Z" fill="white"/>
<path d="M67.8821 21.1447H65.5592V23.4731H67.8821V21.1447Z" fill="white"/>
<path d="M7.46638 23.4731H5.1395V25.8016H7.46638V23.4731Z" fill="white"/>
<path d="M16.7581 23.4731H14.4352V25.8016H16.7581V23.4731Z" fill="white"/>
<path d="M21.4079 23.4731H19.085V25.8016H21.4079V23.4731Z" fill="white"/>
<path d="M33.0264 23.4731H30.7035V25.8016H33.0264V23.4731Z" fill="white"/>
<path d="M35.3494 23.4731H33.0264V25.8016H35.3494V23.4731Z" fill="white"/>
<path d="M42.3221 23.4731H39.9991V25.8016H42.3221V23.4731Z" fill="white"/>
<path d="M49.2908 23.4731H46.9679V25.8016H49.2908V23.4731Z" fill="white"/>
<path d="M53.9406 23.4731H51.6177V25.8016H53.9406V23.4731Z" fill="white"/>
<path d="M58.5865 23.4731H56.2635V25.8016H58.5865V23.4731Z" fill="white"/>
<path d="M60.9094 23.4731H58.5865V25.8016H60.9094V23.4731Z" fill="white"/>
<path d="M63.2363 23.4731H60.9094V25.8016H63.2363V23.4731Z" fill="white"/>
<path d="M67.8821 23.4731H65.5592V25.8016H67.8821V23.4731Z" fill="white"/>
<path d="M2.81658 25.8016H0.493668V28.1301H2.81658V25.8016Z" fill="white"/>
<path d="M7.46638 25.8016H5.1395V28.1301H7.46638V25.8016Z" fill="white"/>
<path d="M9.78929 25.8016H7.46638V28.1301H9.78929V25.8016Z" fill="white"/>
<path d="M12.1123 25.8016H9.78929V28.1301H12.1123V25.8016Z" fill="white"/>
<path d="M14.4352 25.8016H12.1123V28.1301H14.4352V25.8016Z" fill="white"/>
<path d="M19.085 25.8016H16.7581V28.1301H19.085V25.8016Z" fill="white"/>
<path d="M23.7308 25.8016H21.4079V28.1301H23.7308V25.8016Z" fill="white"/>
<path d="M26.0537 25.8016H23.7308V28.1301H26.0537V25.8016Z" fill="white"/>
<path d="M30.7035 25.8016H28.3766V28.1301H30.7035V25.8016Z" fill="white"/>
<path d="M33.0264 25.8016H30.7035V28.1301H33.0264V25.8016Z" fill="white"/>
<path d="M35.3494 25.8016H33.0264V28.1301H35.3494V25.8016Z" fill="white"/>
<path d="M37.6723 25.8016H35.3493V28.1301H37.6723V25.8016Z" fill="white"/>
<path d="M39.9992 25.8016H37.6723V28.1301H39.9992V25.8016Z" fill="white"/>
<path d="M42.3221 25.8016H39.9991V28.1301H42.3221V25.8016Z" fill="white"/>
<path d="M44.645 25.8016H42.3221V28.1301H44.645V25.8016Z" fill="white"/>
<path d="M46.9679 25.8016H44.645V28.1301H46.9679V25.8016Z" fill="white"/>
<path d="M49.2908 25.8016H46.9679V28.1301H49.2908V25.8016Z" fill="white"/>
<path d="M60.9094 25.8016H58.5865V28.1301H60.9094V25.8016Z" fill="white"/>
<path d="M67.8821 25.8016H65.5592V28.1301H67.8821V25.8016Z" fill="white"/>
<path d="M2.81658 28.1301H0.493668V30.4585H2.81658V28.1301Z" fill="white"/>
<path d="M5.1395 28.1301H2.81659V30.4585H5.1395V28.1301Z" fill="white"/>
<path d="M12.1123 28.1301H9.78929V30.4585H12.1123V28.1301Z" fill="white"/>
<path d="M16.7581 28.1301H14.4352V30.4585H16.7581V28.1301Z" fill="white"/>
<path d="M21.4079 28.1301H19.085V30.4585H21.4079V28.1301Z" fill="white"/>
<path d="M30.7035 28.1301H28.3766V30.4585H30.7035V28.1301Z" fill="white"/>
<path d="M33.0264 28.1301H30.7035V30.4585H33.0264V28.1301Z" fill="white"/>
<path d="M42.3221 28.1301H39.9991V30.4585H42.3221V28.1301Z" fill="white"/>
<path d="M46.9679 28.1301H44.645V30.4585H46.9679V28.1301Z" fill="white"/>
<path d="M58.5865 28.1301H56.2635V30.4585H58.5865V28.1301Z" fill="white"/>
<path d="M60.9094 28.1301H58.5865V30.4585H60.9094V28.1301Z" fill="white"/>
<path d="M63.2363 28.1301H60.9094V30.4585H63.2363V28.1301Z" fill="white"/>
<path d="M2.81658 30.4585H0.493668V32.787H2.81658V30.4585Z" fill="white"/>
<path d="M5.1395 30.4585H2.81659V32.787H5.1395V30.4585Z" fill="white"/>
<path d="M9.78929 30.4585H7.46638V32.787H9.78929V30.4585Z" fill="white"/>
<path d="M21.4079 30.4585H19.085V32.787H21.4079V30.4585Z" fill="white"/>
<path d="M26.0537 30.4585H23.7308V32.787H26.0537V30.4585Z" fill="white"/>
<path d="M37.6723 30.4585H35.3493V32.787H37.6723V30.4585Z" fill="white"/>
<path d="M39.9992 30.4585H37.6723V32.787H39.9992V30.4585Z" fill="white"/>
<path d="M44.645 30.4585H42.3221V32.787H44.645V30.4585Z" fill="white"/>
<path d="M51.6177 30.4585H49.2908V32.787H51.6177V30.4585Z" fill="white"/>
<path d="M53.9406 30.4585H51.6177V32.787H53.9406V30.4585Z" fill="white"/>
<path d="M58.5865 30.4585H56.2635V32.787H58.5865V30.4585Z" fill="white"/>
<path d="M63.2363 30.4585H60.9094V32.787H63.2363V30.4585Z" fill="white"/>
<path d="M67.8821 30.4585H65.5592V32.787H67.8821V30.4585Z" fill="white"/>
<path d="M2.81658 32.787H0.493668V35.1154H2.81658V32.787Z" fill="white"/>
<path d="M7.46638 32.787H5.1395V35.1154H7.46638V32.787Z" fill="white"/>
<path d="M9.78929 32.787H7.46638V35.1154H9.78929V32.787Z" fill="white"/>
<path d="M16.7581 32.787H14.4352V35.1154H16.7581V32.787Z" fill="white"/>
<path d="M19.085 32.787H16.7581V35.1154H19.085V32.787Z" fill="white"/>
<path d="M23.7308 32.787H21.4079V35.1154H23.7308V32.787Z" fill="white"/>
<path d="M26.0537 32.787H23.7308V35.1154H26.0537V32.787Z" fill="white"/>
<path d="M39.9992 32.787H37.6723V35.1154H39.9992V32.787Z" fill="white"/>
<path d="M46.9679 32.787H44.645V35.1154H46.9679V32.787Z" fill="white"/>
<path d="M53.9406 32.787H51.6177V35.1154H53.9406V32.787Z" fill="white"/>
<path d="M58.5865 32.787H56.2635V35.1154H58.5865V32.787Z" fill="white"/>
<path d="M63.2363 32.787H60.9094V35.1154H63.2363V32.787Z" fill="white"/>
<path d="M65.5592 32.787H63.2363V35.1154H65.5592V32.787Z" fill="white"/>
<path d="M67.8821 32.787H65.5592V35.1154H67.8821V32.787Z" fill="white"/>
<path d="M2.81658 35.1154H0.493668V37.4439H2.81658V35.1154Z" fill="white"/>
<path d="M7.46638 35.1154H5.1395V37.4439H7.46638V35.1154Z" fill="white"/>
<path d="M14.4352 35.1154H12.1123V37.4439H14.4352V35.1154Z" fill="white"/>
<path d="M19.085 35.1154H16.7581V37.4439H19.085V35.1154Z" fill="white"/>
<path d="M21.4079 35.1154H19.085V37.4439H21.4079V35.1154Z" fill="white"/>
<path d="M26.0537 35.1154H23.7308V37.4439H26.0537V35.1154Z" fill="white"/>
<path d="M28.3766 35.1154H26.0537V37.4439H28.3766V35.1154Z" fill="white"/>
<path d="M33.0264 35.1154H30.7035V37.4439H33.0264V35.1154Z" fill="white"/>
<path d="M44.645 35.1154H42.3221V37.4439H44.645V35.1154Z" fill="white"/>
<path d="M46.9679 35.1154H44.645V37.4439H46.9679V35.1154Z" fill="white"/>
<path d="M51.6177 35.1154H49.2908V37.4439H51.6177V35.1154Z" fill="white"/>
<path d="M63.2363 35.1154H60.9094V37.4439H63.2363V35.1154Z" fill="white"/>
<path d="M2.81658 37.4439H0.493668V39.7724H2.81658V37.4439Z" fill="white"/>
<path d="M5.1395 37.4439H2.81659V39.7724H5.1395V37.4439Z" fill="white"/>
<path d="M7.46638 37.4439H5.1395V39.7724H7.46638V37.4439Z" fill="white"/>
<path d="M12.1123 37.4439H9.78929V39.7724H12.1123V37.4439Z" fill="white"/>
<path d="M16.7581 37.4439H14.4352V39.7724H16.7581V37.4439Z" fill="white"/>
<path d="M30.7035 37.4439H28.3766V39.7724H30.7035V37.4439Z" fill="white"/>
<path d="M35.3494 37.4439H33.0264V39.7724H35.3494V37.4439Z" fill="white"/>
<path d="M44.645 37.4439H42.3221V39.7724H44.645V37.4439Z" fill="white"/>
<path d="M46.9679 37.4439H44.645V39.7724H46.9679V37.4439Z" fill="white"/>
<path d="M49.2908 37.4439H46.9679V39.7724H49.2908V37.4439Z" fill="white"/>
<path d="M51.6177 37.4439H49.2908V39.7724H51.6177V37.4439Z" fill="white"/>
<path d="M60.9094 37.4439H58.5865V39.7724H60.9094V37.4439Z" fill="white"/>
<path d="M63.2363 37.4439H60.9094V39.7724H63.2363V37.4439Z" fill="white"/>
<path d="M65.5592 37.4439H63.2363V39.7724H65.5592V37.4439Z" fill="white"/>
<path d="M2.81658 39.7724H0.493668V42.1008H2.81658V39.7724Z" fill="white"/>
<path d="M7.46638 39.7724H5.1395V42.1008H7.46638V39.7724Z" fill="white"/>
<path d="M9.78929 39.7724H7.46638V42.1008H9.78929V39.7724Z" fill="white"/>
<path d="M12.1123 39.7724H9.78929V42.1008H12.1123V39.7724Z" fill="white"/>
<path d="M14.4352 39.7724H12.1123V42.1008H14.4352V39.7724Z" fill="white"/>
<path d="M19.085 39.7724H16.7581V42.1008H19.085V39.7724Z" fill="white"/>
<path d="M26.0537 39.7724H23.7308V42.1008H26.0537V39.7724Z" fill="white"/>
<path d="M51.6177 39.7724H49.2908V42.1008H51.6177V39.7724Z" fill="white"/>
<path d="M56.2635 39.7724H53.9406V42.1008H56.2635V39.7724Z" fill="white"/>
<path d="M63.2363 39.7724H60.9094V42.1008H63.2363V39.7724Z" fill="white"/>
<path d="M12.1123 42.1008H9.78929V44.4293H12.1123V42.1008Z" fill="white"/>
<path d="M16.7581 42.1008H14.4352V44.4293H16.7581V42.1008Z" fill="white"/>
<path d="M21.4079 42.1008H19.085V44.4293H21.4079V42.1008Z" fill="white"/>
<path d="M23.7308 42.1008H21.4079V44.4293H23.7308V42.1008Z" fill="white"/>
<path d="M26.0537 42.1008H23.7308V44.4293H26.0537V42.1008Z" fill="white"/>
<path d="M28.3766 42.1008H26.0537V44.4293H28.3766V42.1008Z" fill="white"/>
<path d="M30.7035 42.1008H28.3766V44.4293H30.7035V42.1008Z" fill="white"/>
<path d="M46.9679 42.1008H44.645V44.4293H46.9679V42.1008Z" fill="white"/>
<path d="M51.6177 42.1008H49.2908V44.4293H51.6177V42.1008Z" fill="white"/>
<path d="M53.9406 42.1008H51.6177V44.4293H53.9406V42.1008Z" fill="white"/>
<path d="M56.2635 42.1008H53.9406V44.4293H56.2635V42.1008Z" fill="white"/>
<path d="M58.5865 42.1008H56.2635V44.4293H58.5865V42.1008Z" fill="white"/>
<path d="M63.2363 42.1008H60.9094V44.4293H63.2363V42.1008Z" fill="white"/>
<path d="M67.8821 42.1008H65.5592V44.4293H67.8821V42.1008Z" fill="white"/>
<path d="M7.46638 44.4293H5.1395V46.7577H7.46638V44.4293Z" fill="white"/>
<path d="M9.78929 44.4293H7.46638V46.7577H9.78929V44.4293Z" fill="white"/>
<path d="M12.1123 44.4293H9.78929V46.7577H12.1123V44.4293Z" fill="white"/>
<path d="M14.4352 44.4293H12.1123V46.7577H14.4352V44.4293Z" fill="white"/>
<path d="M21.4079 44.4293H19.085V46.7577H21.4079V44.4293Z" fill="white"/>
<path d="M23.7308 44.4293H21.4079V46.7577H23.7308V44.4293Z" fill="white"/>
<path d="M26.0537 44.4293H23.7308V46.7577H26.0537V44.4293Z" fill="white"/>
<path d="M28.3766 44.4293H26.0537V46.7577H28.3766V44.4293Z" fill="white"/>
<path d="M35.3494 44.4293H33.0264V46.7577H35.3494V44.4293Z" fill="white"/>
<path d="M37.6723 44.4293H35.3493V46.7577H37.6723V44.4293Z" fill="white"/>
<path d="M42.3221 44.4293H39.9991V46.7577H42.3221V44.4293Z" fill="white"/>
<path d="M44.645 44.4293H42.3221V46.7577H44.645V44.4293Z" fill="white"/>
<path d="M46.9679 44.4293H44.645V46.7577H46.9679V44.4293Z" fill="white"/>
<path d="M65.5592 44.4293H63.2363V46.7577H65.5592V44.4293Z" fill="white"/>
<path d="M2.81658 46.7578H0.493668V49.0862H2.81658V46.7578Z" fill="white"/>
<path d="M5.1395 46.7578H2.81659V49.0862H5.1395V46.7578Z" fill="white"/>
<path d="M9.78929 46.7578H7.46638V49.0862H9.78929V46.7578Z" fill="white"/>
<path d="M14.4352 46.7578H12.1123V49.0862H14.4352V46.7578Z" fill="white"/>
<path d="M16.7581 46.7578H14.4352V49.0862H16.7581V46.7578Z" fill="white"/>
<path d="M19.085 46.7578H16.7581V49.0862H19.085V46.7578Z" fill="white"/>
<path d="M21.4079 46.7578H19.085V49.0862H21.4079V46.7578Z" fill="white"/>
<path d="M28.3766 46.7578H26.0537V49.0862H28.3766V46.7578Z" fill="white"/>
<path d="M39.9992 46.7578H37.6723V49.0862H39.9992V46.7578Z" fill="white"/>
<path d="M42.3221 46.7578H39.9991V49.0862H42.3221V46.7578Z" fill="white"/>
<path d="M44.645 46.7578H42.3221V49.0862H44.645V46.7578Z" fill="white"/>
<path d="M46.9679 46.7578H44.645V49.0862H46.9679V46.7578Z" fill="white"/>
<path d="M49.2908 46.7578H46.9679V49.0862H49.2908V46.7578Z" fill="white"/>
<path d="M51.6177 46.7578H49.2908V49.0862H51.6177V46.7578Z" fill="white"/>
<path d="M53.9406 46.7578H51.6177V49.0862H53.9406V46.7578Z" fill="white"/>
<path d="M56.2635 46.7578H53.9406V49.0862H56.2635V46.7578Z" fill="white"/>
<path d="M58.5865 46.7578H56.2635V49.0862H58.5865V46.7578Z" fill="white"/>
<path d="M67.8821 46.7578H65.5592V49.0862H67.8821V46.7578Z" fill="white"/>
<path d="M21.4079 49.0866H19.085V51.4151H21.4079V49.0866Z" fill="white"/>
<path d="M23.7308 49.0866H21.4079V51.4151H23.7308V49.0866Z" fill="white"/>
<path d="M26.0537 49.0866H23.7308V51.4151H26.0537V49.0866Z" fill="white"/>
<path d="M30.7035 49.0866H28.3766V51.4151H30.7035V49.0866Z" fill="white"/>
<path d="M33.0264 49.0866H30.7035V51.4151H33.0264V49.0866Z" fill="white"/>
<path d="M35.3494 49.0866H33.0264V51.4151H35.3494V49.0866Z" fill="white"/>
<path d="M44.645 49.0866H42.3221V51.4151H44.645V49.0866Z" fill="white"/>
<path d="M49.2908 49.0866H46.9679V51.4151H49.2908V49.0866Z" fill="white"/>
<path d="M58.5865 49.0866H56.2635V51.4151H58.5865V49.0866Z" fill="white"/>
<path d="M63.2363 49.0866H60.9094V51.4151H63.2363V49.0866Z" fill="white"/>
<path d="M65.5592 49.0866H63.2363V51.4151H65.5592V49.0866Z" fill="white"/>
<path d="M2.81658 51.4147H0.493668V53.7431H2.81658V51.4147Z" fill="white"/>
<path d="M5.1395 51.4147H2.81659V53.7431H5.1395V51.4147Z" fill="white"/>
<path d="M7.46638 51.4147H5.1395V53.7431H7.46638V51.4147Z" fill="white"/>
<path d="M9.78929 51.4147H7.46638V53.7431H9.78929V51.4147Z" fill="white"/>
<path d="M12.1123 51.4147H9.78929V53.7431H12.1123V51.4147Z" fill="white"/>
<path d="M14.4352 51.4147H12.1123V53.7431H14.4352V51.4147Z" fill="white"/>
<path d="M16.7581 51.4147H14.4352V53.7431H16.7581V51.4147Z" fill="white"/>
<path d="M21.4079 51.4147H19.085V53.7431H21.4079V51.4147Z" fill="white"/>
<path d="M23.7308 51.4147H21.4079V53.7431H23.7308V51.4147Z" fill="white"/>
<path d="M28.3766 51.4147H26.0537V53.7431H28.3766V51.4147Z" fill="white"/>
<path d="M35.3494 51.4147H33.0264V53.7431H35.3494V51.4147Z" fill="white"/>
<path d="M37.6723 51.4147H35.3493V53.7431H37.6723V51.4147Z" fill="white"/>
<path d="M39.9992 51.4147H37.6723V53.7431H39.9992V51.4147Z" fill="white"/>
<path d="M42.3221 51.4147H39.9991V53.7431H42.3221V51.4147Z" fill="white"/>
<path d="M46.9679 51.4147H44.645V53.7431H46.9679V51.4147Z" fill="white"/>
<path d="M49.2908 51.4147H46.9679V53.7431H49.2908V51.4147Z" fill="white"/>
<path d="M53.9406 51.4147H51.6177V53.7431H53.9406V51.4147Z" fill="white"/>
<path d="M58.5865 51.4147H56.2635V53.7431H58.5865V51.4147Z" fill="white"/>
<path d="M60.9094 51.4147H58.5865V53.7431H60.9094V51.4147Z" fill="white"/>
<path d="M63.2363 51.4147H60.9094V53.7431H63.2363V51.4147Z" fill="white"/>
<path d="M67.8821 51.4147H65.5592V53.7431H67.8821V51.4147Z" fill="white"/>
<path d="M2.81658 53.7435H0.493668V56.072H2.81658V53.7435Z" fill="white"/>
<path d="M16.7581 53.7435H14.4352V56.072H16.7581V53.7435Z" fill="white"/>
<path d="M21.4079 53.7435H19.085V56.072H21.4079V53.7435Z" fill="white"/>
<path d="M26.0537 53.7435H23.7308V56.072H26.0537V53.7435Z" fill="white"/>
<path d="M30.7035 53.7435H28.3766V56.072H30.7035V53.7435Z" fill="white"/>
<path d="M33.0264 53.7435H30.7035V56.072H33.0264V53.7435Z" fill="white"/>
<path d="M39.9992 53.7435H37.6723V56.072H39.9992V53.7435Z" fill="white"/>
<path d="M44.645 53.7435H42.3221V56.072H44.645V53.7435Z" fill="white"/>
<path d="M46.9679 53.7435H44.645V56.072H46.9679V53.7435Z" fill="white"/>
<path d="M49.2908 53.7435H46.9679V56.072H49.2908V53.7435Z" fill="white"/>
<path d="M58.5865 53.7435H56.2635V56.072H58.5865V53.7435Z" fill="white"/>
<path d="M60.9094 53.7435H58.5865V56.072H60.9094V53.7435Z" fill="white"/>
<path d="M2.81658 56.0716H0.493668V58.4005H2.81658V56.0716Z" fill="white"/>
<path d="M7.46638 56.0716H5.1395V58.4005H7.46638V56.0716Z" fill="white"/>
<path d="M9.78929 56.0716H7.46638V58.4005H9.78929V56.0716Z" fill="white"/>
<path d="M12.1123 56.0716H9.78929V58.4005H12.1123V56.0716Z" fill="white"/>
<path d="M16.7581 56.0716H14.4352V58.4005H16.7581V56.0716Z" fill="white"/>
<path d="M21.4079 56.0716H19.085V58.4005H21.4079V56.0716Z" fill="white"/>
<path d="M23.7308 56.0716H21.4079V58.4005H23.7308V56.0716Z" fill="white"/>
<path d="M26.0537 56.0716H23.7308V58.4005H26.0537V56.0716Z" fill="white"/>
<path d="M30.7035 56.0716H28.3766V58.4005H30.7035V56.0716Z" fill="white"/>
<path d="M35.3494 56.0716H33.0264V58.4005H35.3494V56.0716Z" fill="white"/>
<path d="M37.6723 56.0716H35.3493V58.4005H37.6723V56.0716Z" fill="white"/>
<path d="M39.9992 56.0716H37.6723V58.4005H39.9992V56.0716Z" fill="white"/>
<path d="M42.3221 56.0716H39.9991V58.4005H42.3221V56.0716Z" fill="white"/>
<path d="M49.2908 56.0716H46.9679V58.4005H49.2908V56.0716Z" fill="white"/>
<path d="M51.6177 56.0716H49.2908V58.4005H51.6177V56.0716Z" fill="white"/>
<path d="M53.9406 56.0716H51.6177V58.4005H53.9406V56.0716Z" fill="white"/>
<path d="M56.2635 56.0716H53.9406V58.4005H56.2635V56.0716Z" fill="white"/>
<path d="M58.5865 56.0716H56.2635V58.4005H58.5865V56.0716Z" fill="white"/>
<path d="M60.9094 56.0716H58.5865V58.4005H60.9094V56.0716Z" fill="white"/>
<path d="M63.2363 56.0716H60.9094V58.4005H63.2363V56.0716Z" fill="white"/>
<path d="M65.5592 56.0716H63.2363V58.4005H65.5592V56.0716Z" fill="white"/>
<path d="M2.81658 58.4005H0.493668V60.7289H2.81658V58.4005Z" fill="white"/>
<path d="M7.46638 58.4005H5.1395V60.7289H7.46638V58.4005Z" fill="white"/>
<path d="M9.78929 58.4005H7.46638V60.7289H9.78929V58.4005Z" fill="white"/>
<path d="M12.1123 58.4005H9.78929V60.7289H12.1123V58.4005Z" fill="white"/>
<path d="M16.7581 58.4005H14.4352V60.7289H16.7581V58.4005Z" fill="white"/>
<path d="M30.7035 58.4005H28.3766V60.7289H30.7035V58.4005Z" fill="white"/>
<path d="M35.3494 58.4005H33.0264V60.7289H35.3494V58.4005Z" fill="white"/>
<path d="M42.3221 58.4005H39.9991V60.7289H42.3221V58.4005Z" fill="white"/>
<path d="M44.645 58.4005H42.3221V60.7289H44.645V58.4005Z" fill="white"/>
<path d="M46.9679 58.4005H44.645V60.7289H46.9679V58.4005Z" fill="white"/>
<path d="M53.9406 58.4005H51.6177V60.7289H53.9406V58.4005Z" fill="white"/>
<path d="M58.5865 58.4005H56.2635V60.7289H58.5865V58.4005Z" fill="white"/>
<path d="M63.2363 58.4005H60.9094V60.7289H63.2363V58.4005Z" fill="white"/>
<path d="M65.5592 58.4005H63.2363V60.7289H65.5592V58.4005Z" fill="white"/>
<path d="M2.81658 60.7289H0.493668V63.0573H2.81658V60.7289Z" fill="white"/>
<path d="M7.46638 60.7289H5.1395V63.0573H7.46638V60.7289Z" fill="white"/>
<path d="M9.78929 60.7289H7.46638V63.0573H9.78929V60.7289Z" fill="white"/>
<path d="M12.1123 60.7289H9.78929V63.0573H12.1123V60.7289Z" fill="white"/>
<path d="M16.7581 60.7289H14.4352V63.0573H16.7581V60.7289Z" fill="white"/>
<path d="M23.7308 60.7289H21.4079V63.0573H23.7308V60.7289Z" fill="white"/>
<path d="M37.6723 60.7289H35.3493V63.0573H37.6723V60.7289Z" fill="white"/>
<path d="M51.6177 60.7289H49.2908V63.0573H51.6177V60.7289Z" fill="white"/>
<path d="M63.2363 60.7289H60.9094V63.0573H63.2363V60.7289Z" fill="white"/>
<path d="M65.5592 60.7289H63.2363V63.0573H65.5592V60.7289Z" fill="white"/>
<path d="M67.8821 60.7289H65.5592V63.0573H67.8821V60.7289Z" fill="white"/>
<path d="M2.81658 63.0573H0.493668V65.3858H2.81658V63.0573Z" fill="white"/>
<path d="M16.7581 63.0573H14.4352V65.3858H16.7581V63.0573Z" fill="white"/>
<path d="M26.0537 63.0573H23.7308V65.3858H26.0537V63.0573Z" fill="white"/>
<path d="M28.3766 63.0573H26.0537V65.3858H28.3766V63.0573Z" fill="white"/>
<path d="M33.0264 63.0573H30.7035V65.3858H33.0264V63.0573Z" fill="white"/>
<path d="M37.6723 63.0573H35.3493V65.3858H37.6723V63.0573Z" fill="white"/>
<path d="M39.9992 63.0573H37.6723V65.3858H39.9992V63.0573Z" fill="white"/>
<path d="M49.2908 63.0573H46.9679V65.3858H49.2908V63.0573Z" fill="white"/>
<path d="M53.9406 63.0573H51.6177V65.3858H53.9406V63.0573Z" fill="white"/>
<path d="M58.5865 63.0573H56.2635V65.3858H58.5865V63.0573Z" fill="white"/>
<path d="M60.9094 63.0573H58.5865V65.3858H60.9094V63.0573Z" fill="white"/>
<path d="M2.81658 65.3858H0.493668V67.7143H2.81658V65.3858Z" fill="white"/>
<path d="M5.1395 65.3858H2.81659V67.7143H5.1395V65.3858Z" fill="white"/>
<path d="M7.46638 65.3858H5.1395V67.7143H7.46638V65.3858Z" fill="white"/>
<path d="M9.78929 65.3858H7.46638V67.7143H9.78929V65.3858Z" fill="white"/>
<path d="M12.1123 65.3858H9.78929V67.7143H12.1123V65.3858Z" fill="white"/>
<path d="M14.4352 65.3858H12.1123V67.7143H14.4352V65.3858Z" fill="white"/>
<path d="M16.7581 65.3858H14.4352V67.7143H16.7581V65.3858Z" fill="white"/>
<path d="M23.7308 65.3858H21.4079V67.7143H23.7308V65.3858Z" fill="white"/>
<path d="M30.7035 65.3858H28.3766V67.7143H30.7035V65.3858Z" fill="white"/>
<path d="M33.0264 65.3858H30.7035V67.7143H33.0264V65.3858Z" fill="white"/>
<path d="M35.3494 65.3858H33.0264V67.7143H35.3494V65.3858Z" fill="white"/>
<path d="M37.6723 65.3858H35.3493V67.7143H37.6723V65.3858Z" fill="white"/>
<path d="M42.3221 65.3858H39.9991V67.7143H42.3221V65.3858Z" fill="white"/>
<path d="M44.645 65.3858H42.3221V67.7143H44.645V65.3858Z" fill="white"/>
<path d="M46.9679 65.3858H44.645V67.7143H46.9679V65.3858Z" fill="white"/>
<path d="M49.2908 65.3858H46.9679V67.7143H49.2908V65.3858Z" fill="white"/>
<path d="M51.6177 65.3858H49.2908V67.7143H51.6177V65.3858Z" fill="white"/>
<path d="M53.9406 65.3858H51.6177V67.7143H53.9406V65.3858Z" fill="white"/>
<path d="M56.2635 65.3858H53.9406V67.7143H56.2635V65.3858Z" fill="white"/>
<path d="M58.5865 65.3858H56.2635V67.7143H58.5865V65.3858Z" fill="white"/>
<path d="M63.2363 65.3858H60.9094V67.7143H63.2363V65.3858Z" fill="white"/>
<path d="M65.5592 65.3858H63.2363V67.7143H65.5592V65.3858Z" fill="white"/>
</g>
</svg>
